<svg width="714" height="807" viewBox="0 0 714 807" fill="none" xmlns="http://www.w3.org/2000/svg">
<path d="M341.354 806.115C317.426 804.452 295.215 801.34 276.599 797.048C255.139 792.112 218.442 779.558 206.049 772.959C204.708 772.262 203.42 771.779 203.259 771.94C203.098 772.154 202.937 771.993 202.937 771.672C202.937 771.35 202.401 770.921 201.757 770.706C199.879 770.169 177.936 759.118 173.912 756.757C155.564 745.92 133.568 730.737 120.853 720.114C112.59 713.247 97.6221 699.351 90.0038 691.572C77.1814 678.428 60.4426 658.256 50.3028 643.609C42.8454 632.933 41.3432 630.518 30.8278 612.492C25.3019 602.996 12.4795 577.137 12.4795 575.474C12.4795 575.313 168.494 575.205 359.112 575.205C659.177 575.205 705.692 575.313 705.155 575.956C704.78 576.386 704.565 577.029 704.619 577.459C704.833 578.478 704.19 580.195 701.078 586.74C699.522 590.013 697.698 593.876 697.054 595.324C695.069 599.723 687.987 613.78 685.358 618.394C680.208 627.568 668.673 645.487 664.381 651.12C662.986 652.891 660.679 656.056 659.231 658.095C646.462 676.175 622.212 702.141 603.167 718.129C598.875 721.723 591.846 727.303 587.501 730.522C583.155 733.795 579.614 736.585 579.56 736.853C579.56 737.067 580.473 737.228 581.599 737.228C584.979 737.228 589.271 738.784 591.203 740.716C592.651 742.164 592.973 742.915 592.973 744.847C592.973 749.407 589.7 751.66 584.55 750.641C582.94 750.265 581.599 750.104 581.492 750.212C581.438 750.265 581.009 751.285 580.472 752.411C579.453 754.665 576.556 756.274 574.356 755.845C573.605 755.738 572.961 755.899 572.854 756.22C572.801 756.542 572.425 758.205 572.049 759.922C571.728 761.693 570.869 763.678 570.118 764.59C567.382 767.809 562.232 767.058 560.407 763.249C559.603 761.585 559.603 760.781 560.193 755.684C560.568 752.572 560.729 749.89 560.568 749.729C560.461 749.621 558.1 750.909 555.311 752.626C538.304 763.409 508.474 777.573 487.551 784.87C483.634 786.211 460.296 793.614 456.058 794.848C444.094 798.336 413.675 803.486 395.273 805.149C386.635 805.954 348.597 806.598 341.354 806.115ZM348.597 788.089C348.382 784.762 347.9 777.09 347.578 771.028L346.988 760.03L339.477 760.191C327.191 760.512 319.68 758.152 312.866 751.875C306.911 746.349 304.872 742.057 304.872 735.082C304.872 728.644 306.857 723.44 310.881 719.148L312.491 717.485L311.149 713.247C310.398 710.94 309.701 707.882 309.54 706.487C309.379 705.092 309.164 703.751 308.95 703.59C308.145 702.731 288.133 706.809 278.691 709.76L275.365 710.833L275.15 709.652C274.989 709.062 274.614 706.648 274.292 704.287C274.023 701.98 273.594 699.566 273.433 698.869C273.165 697.796 273.594 697.581 280.354 695.703C289.099 693.343 298.863 691.358 306.482 690.499L312.169 689.909L313.456 686.583C317.212 676.765 320.806 670.166 329.176 657.558C345.432 633.201 354.069 627.514 362.653 635.454C369.628 641.839 381.484 661.367 389.103 678.911L392.054 685.832L399.028 685.993C410.67 686.314 432.184 690.285 449.566 695.381C483.259 705.253 516.844 723.548 535.943 742.54L540.342 746.885L546.888 743.076C555.579 737.979 559.925 734.921 560.139 733.634C560.246 733.097 558.476 729.02 556.33 724.621C554.13 720.168 551.072 713.676 549.516 710.135C548.014 706.594 546.512 703.375 546.19 703.053C545.761 702.517 545.868 702.356 546.512 702.356C546.995 702.356 549.409 701.551 551.931 700.532L556.437 698.761L558.691 703.912C562.553 712.657 569.957 727.035 570.655 727.035C571.62 727.035 583.423 718.129 592.973 710.189C602.201 702.517 622.427 682.827 630.474 673.653C639.166 663.835 648.554 651.871 654.724 642.965C668.137 623.544 670.98 618.876 680.208 601.226C686.002 590.12 686.807 588.403 686.861 587.813C686.861 587.438 658.802 587.33 603.381 587.438C524.301 587.545 519.955 587.598 520.224 588.511C520.384 588.993 520.867 591.139 521.35 593.178C521.833 595.27 523.282 600.796 524.623 605.518C525.964 610.239 527.681 616.14 528.378 618.662C529.076 621.183 530.31 625.314 531.114 627.89C531.919 630.465 532.456 632.664 532.295 632.772C532.188 632.879 529.666 633.523 526.662 634.274L521.243 635.615L518.399 625.422C516.844 619.788 515.127 613.619 514.59 611.687C514.054 609.756 512.498 603.533 511.103 597.899L508.635 587.545L270.322 587.438C139.308 587.33 32.0081 587.277 31.9545 587.277C31.6326 587.277 41.075 605.41 43.1673 608.898C44.294 610.722 45.206 612.331 45.206 612.492C45.206 612.868 54.9167 627.997 59.9061 635.293C64.52 642.053 72.7285 652.783 80.9906 662.923C89.3064 673.117 105.455 689.641 119.458 702.302C131.261 712.925 153.311 729.288 169.567 739.482C178.312 744.954 177.453 744.847 182.336 740.984C184.642 739.16 188.613 736.209 191.188 734.492C196.982 730.629 211.575 722.153 212.004 722.475C212.541 722.743 214.633 727.142 216.081 730.79L217.369 734.009L214.847 735.458C201.489 743.022 190.329 750.319 190.866 751.177C191.349 751.928 202.776 757.83 210.448 761.264C219.461 765.287 225.256 767.702 232.176 770.223C235.127 771.296 239.58 772.959 242.102 773.979C248.218 776.393 263.562 780.899 275.096 783.743C288.992 787.123 306.75 790.127 324.991 792.22C340.657 793.99 339.959 793.936 344.788 793.99L349.026 794.097L348.597 788.089ZM386.152 793.507C411.529 791.308 438.836 786.64 458.043 781.221C471.831 777.359 476.66 775.695 493.989 769.043C506.865 764.107 528.056 754.343 528.056 753.323C528.056 752.572 520.599 745.973 514.322 741.198C495.33 726.874 468.612 714.105 442.538 706.862C428.911 703.107 404.93 698.6 398.331 698.6C396.346 698.6 396.024 698.761 396.292 699.566C398.492 706.487 397.901 714.91 394.79 721.08C391.732 727.088 381.002 734.331 374.134 734.921C371.237 735.19 370.915 735.082 369.199 733.58C367.696 732.239 367.375 731.595 367.375 729.717C367.375 726.928 368.984 725.372 373.115 724.138C381.163 721.831 386.635 715.554 386.581 708.794C386.528 702.678 381.377 687.978 373.866 672.58C368.662 662.011 356.805 643.985 354.928 643.931C354.606 643.877 352.245 646.131 349.67 648.867C345.002 653.803 336.418 666.088 331.59 674.726C329.176 679.018 325.098 686.797 324.991 687.334C324.991 687.495 324.562 688.353 324.079 689.212C322.416 692.377 320.431 700.317 320.431 704.019C320.431 707.882 321.236 710.457 323.274 712.871C325.206 715.178 325.796 716.573 325.796 718.719C325.796 721.348 325.045 722.528 322.684 723.762C318.714 725.801 316.192 730.147 316.139 734.975C316.139 738.57 317.534 741.359 320.592 743.881C325.849 748.173 333.307 750.051 342.105 749.353L346.827 748.924L346.505 743.774C346.29 740.876 345.861 734.975 345.539 730.629C344.949 723.011 345.002 722.635 346.022 721.241C348.114 718.451 352.782 718.397 354.82 721.133C356.537 723.44 356.913 727.679 357.718 754.665C358.522 780.792 358.898 789.001 359.381 792.381L359.649 794.097H369.682C375.207 794.097 382.611 793.829 386.152 793.507Z" fill="white"/>
<path d="M234.215 733.419C233.303 733.151 232.069 732.239 231.479 731.434C230.46 729.986 223.7 709.652 223.056 706.004C222.251 701.605 224.987 697.795 229.011 697.795C232.981 697.795 233.893 699.244 238.078 711.959C241.887 723.655 242.638 727.625 241.565 730.2C240.439 732.937 237.327 734.278 234.215 733.419Z" fill="white"/>
<path d="M251.812 727.679C250.793 727.196 249.559 725.909 249.022 724.889C248.003 722.85 242.101 694.577 242.101 691.787C242.101 690.607 242.638 689.426 243.657 688.3C244.998 686.797 245.589 686.529 247.681 686.529C249.612 686.529 250.417 686.851 251.705 688.085C252.563 688.89 253.529 690.231 253.851 691.036C254.924 693.718 260.343 719.095 260.343 721.509C260.343 724.621 259.055 726.928 256.855 727.894C254.495 728.859 254.012 728.859 251.812 727.679Z" fill="white"/>
<path d="M540.235 689.104C533.26 670.702 532.295 668.073 528.593 657.29C526.769 652.139 525.213 647.525 525.052 647.043C524.784 646.345 525.696 646.023 530.202 645.272C533.153 644.736 535.728 644.36 535.836 644.521C535.943 644.628 537.391 648.813 539.054 653.802C540.771 658.846 542.917 664.854 543.883 667.215C546.78 674.082 551.555 686.422 551.769 687.548C551.877 688.353 551.072 688.889 547.638 690.338C545.278 691.357 542.971 692.323 542.488 692.43C541.791 692.645 541.308 691.894 540.235 689.104Z" fill="white"/>
<path d="M108.03 489.634C97.9438 487.327 91.5595 480.567 88.3405 468.657C87.3748 465.17 87.3211 462.058 87.3211 411.573V358.192H94.2956H101.27L101.538 411.305L101.807 464.419L103.094 467.53C104.65 471.447 107.064 474.237 110.015 475.524C112.966 476.865 120.37 476.919 123.374 475.685C127.773 473.861 130.456 469.676 131.529 463.024C131.904 460.824 132.119 441.51 132.119 408.73V357.87L138.718 358.031L145.263 358.192V412.378C145.263 463.292 145.21 466.779 144.298 469.73C141.079 480.085 135.982 485.879 127.505 488.883C123.267 490.332 112.966 490.761 108.03 489.634Z" fill="white"/>
<path d="M283.68 489.902C277.618 488.883 272.95 486.415 269.141 482.23C263.507 476.06 261.308 469.247 261.2 457.712L261.147 450.469L267.907 450.308L274.667 450.147L274.989 457.551C275.364 468.12 277.242 472.519 282.5 475.148C284.807 476.275 285.933 476.49 290.065 476.49C295.537 476.49 298.219 475.578 300.687 472.949C304.121 469.3 305.945 461.038 304.872 454.332C304.067 449.343 302.941 446.821 299.346 442.046C296.073 437.593 293.874 435.501 284.753 427.936C273.755 418.816 268.926 413.343 265.117 405.725C259.645 394.727 260.503 377.934 267.156 367.741C272.038 360.337 279.71 356.689 290.655 356.689C306.213 356.689 315.549 364.307 318.875 379.544C319.572 382.709 319.894 385.875 319.787 388.718L319.626 393.064H312.92H306.213L305.892 388.235C304.979 375.306 300.634 370.263 290.655 370.263C287.811 370.263 286.255 370.584 284.217 371.55C280.944 373.052 279.549 374.555 277.939 378.042C276.866 380.402 276.706 381.529 276.706 387.967C276.706 394.405 276.867 395.532 277.993 398.161C280.676 404.491 286.309 410.768 297.093 419.46C314.046 433.087 319.894 443.012 319.894 457.873C319.894 473.807 313.724 484.322 301.921 488.614C297.844 490.117 288.616 490.76 283.68 489.902Z" fill="white"/>
<path d="M651.987 490.116C648.607 489.687 643.189 487.648 640.292 485.771C634.014 481.64 629.669 473.968 628.381 464.954C627.684 459.75 627.684 386.894 628.381 381.904C629.615 373.75 633.639 366.078 638.897 362.161C647.534 355.616 663.254 354.704 673.555 360.176C679.403 363.288 684.07 369.458 686.538 377.237C687.557 380.563 687.611 382.387 687.772 421.498C687.933 457.122 687.879 462.808 687.128 466.564C684.875 477.83 678.222 485.932 668.726 488.829C665.185 489.955 656.065 490.599 651.987 490.116ZM664.649 475.684C669.102 473.86 671.784 469.676 672.857 463.023C673.662 458.195 673.662 388.396 672.857 383.728C672.16 379.544 670.175 375.305 668.19 373.589C665.453 371.228 663.683 370.584 658.586 370.37C654.241 370.155 653.382 370.262 650.753 371.496C647.481 372.999 645.496 375.252 643.779 379.49C642.599 382.334 642.599 382.709 642.438 421.498C642.277 463.023 642.33 464.794 644.745 469.568C646.73 473.485 649.358 475.416 654.402 476.704C656.333 477.187 662.503 476.597 664.649 475.684Z" fill="white"/>
<path d="M39.1434 488.507C38.9288 488.293 38.7678 461.951 38.7678 430.029V371.872L27.1257 371.765L15.4299 371.604V364.898V358.192H46.5471H77.6643V364.898V371.604L65.7539 371.765L53.7899 371.872L53.6826 430.244L53.5217 488.561L46.4935 488.722C42.6843 488.776 39.358 488.668 39.1434 488.507Z" fill="white"/>
<path d="M160.124 423.537L160.285 358.192H178.258C193.87 358.245 196.66 358.352 199.664 359.211C209.214 361.84 214.579 367.312 217.262 377.237C218.066 380.134 218.227 382.924 218.227 393.6C218.227 405.618 218.12 406.745 216.94 410.5C214.794 417.421 211.897 421.123 206.21 424.342L203.313 425.951L206.102 427.346C211.575 430.136 214.901 434.16 217.047 440.705C218.013 443.656 218.174 446.07 218.549 463.077C218.925 480.889 219.354 485.932 220.642 487.541C220.963 487.863 221.017 488.292 220.802 488.453C220.642 488.668 217.262 488.829 213.399 488.829H206.263L205.727 487.38C204.278 483.625 204.01 480.513 203.849 463.882C203.688 447.036 203.634 446.016 202.454 443.119C200.952 439.203 197.518 436.037 193.334 434.75C191.08 434.052 188.398 433.838 182.55 433.838H174.771L174.61 461.36L174.502 488.829H167.26H160.017L160.124 423.537ZM195.694 418.333C199.235 416.777 201.274 414.631 202.776 410.929C203.634 408.944 203.742 406.852 203.742 395.746C203.742 384.265 203.634 382.602 202.669 380.188C201.22 376.379 199.396 374.286 196.338 372.838C193.816 371.711 192.958 371.604 184.213 371.604H174.771L174.61 395.21C174.556 408.193 174.61 419.138 174.771 419.567C174.985 420.157 176.702 420.264 183.784 420.05C191.831 419.835 192.743 419.674 195.694 418.333Z" fill="white"/>
<path d="M233.625 423.537L233.786 358.191L240.921 358.03L248.003 357.869V423.376V488.829H240.76H233.518L233.625 423.537Z" fill="white"/>
<path d="M351.923 488.507C351.709 488.293 351.548 461.951 351.548 430.029V371.872L339.637 371.765L327.674 371.604V364.898V358.192H358.79H389.907L390.068 364.576C390.176 369.351 390.015 371.068 389.532 371.443C389.156 371.658 383.684 371.872 377.461 371.872H366.033L365.926 430.244L365.765 488.561L359.005 488.722C355.303 488.776 352.138 488.668 351.923 488.507Z" fill="white"/>
<path d="M396.453 488.453C396.292 488.185 396.668 485.878 397.151 483.196C397.687 480.567 398.76 474.987 399.565 470.856C402.194 457.014 404.662 444.085 405.735 438.666C406.325 435.715 407.612 428.741 408.685 423.107C409.758 417.528 410.939 411.251 411.368 409.158C412.119 405.564 414.157 394.727 418.396 372.408C419.469 366.668 420.542 361.034 420.864 359.908L421.347 357.923L431.915 358.03L442.484 358.191L443.128 361.41C443.933 365.38 445.274 372.408 448.118 387.43C449.298 393.761 450.639 400.682 451.068 402.72C451.497 404.813 452.678 411.09 453.751 416.669C457.989 439.042 459.974 449.557 460.725 453.152C461.154 455.244 462.335 461.521 463.408 467.101C464.427 472.734 465.768 479.601 466.358 482.391C466.948 485.234 467.431 487.809 467.431 488.185C467.431 488.721 465.661 488.829 460.081 488.721L452.678 488.561L450.156 475.953C448.761 469.032 447.635 463.291 447.635 463.238C447.581 463.13 440.231 463.077 431.218 463.077H414.855L414.64 464.311C414.479 464.955 413.353 470.534 412.172 476.704C410.939 482.874 409.866 488.131 409.705 488.4C409.383 488.936 396.775 488.99 396.453 488.453ZM445.435 449.342C445.435 448.913 445.059 446.928 444.684 444.943C444.255 442.958 442.86 436.144 441.68 429.814C439.48 418.44 434.652 393.707 432.452 382.441C431.808 379.275 431.111 376.861 430.896 377.076C430.682 377.344 429.823 380.885 429.072 385.016C428.267 389.147 427.194 394.834 426.658 397.624C426.121 400.414 424.834 407.334 423.761 412.914C422.741 418.547 420.756 428.794 419.415 435.715C418.128 442.636 417.001 448.752 417.001 449.289C417.001 450.147 418.02 450.201 431.218 450.201C443.718 450.201 445.435 450.093 445.435 449.342Z" fill="white"/>
<path d="M478.805 423.537L478.966 358.192H488.086H497.153L498.602 362.752C499.943 367.097 506.166 386.519 510.083 398.697C511.049 401.809 515.019 414.202 518.882 426.22C522.744 438.291 526.071 448.431 526.285 448.752C526.553 449.128 526.822 428.902 526.983 403.794L527.251 358.192H533.689H540.127L540.288 423.537L540.395 488.829H532.669H524.944L524.139 486.307C523.71 484.859 522.476 480.942 521.349 477.562C520.276 474.182 518.935 469.944 518.399 468.174C517.862 466.403 516.575 462.326 515.555 459.053C513.946 454.117 505.04 425.79 498.548 405.403C497.636 402.453 496.563 399.073 496.134 397.892C495.758 396.712 494.793 393.654 493.988 391.025C493.183 388.45 492.325 386.465 492.057 386.68C491.788 386.841 491.574 407.871 491.574 437.915V488.829H485.136H478.698L478.805 423.537Z" fill="white"/>
<path d="M555.149 488.185C554.988 487.81 554.934 458.409 554.988 422.84L555.149 358.192H573.658C593.67 358.245 595.708 358.46 601.61 361.411C606.868 364.093 611.642 370.477 614.003 377.881L615.237 381.798V423.376V464.955L614.003 468.978C612.286 474.397 610.677 477.348 607.726 480.674C604.99 483.732 601.181 486.093 596.728 487.541C594.206 488.346 591.094 488.507 574.57 488.722C559.012 488.883 555.363 488.775 555.149 488.185ZM590.558 474.826C595.386 473.539 598.713 469.837 600.269 464.043C601.342 459.858 601.342 386.894 600.269 382.763C599.357 379.33 597.801 376.754 595.386 374.662C592.382 371.98 590.451 371.604 579.56 371.604H569.634L569.473 422.84C569.42 451.006 569.473 474.397 569.634 474.773C569.956 475.631 587.393 475.685 590.558 474.826Z" fill="white"/>
<path d="M2.28601 268.328C2.28601 268.059 1.91046 267.791 1.48126 267.791C1.05206 267.791 0.676514 267.737 0.676514 267.684C0.676514 267.577 2.33966 262.587 4.37836 256.525C8.24116 245.044 10.5481 239.088 12.6941 234.689C13.3916 233.294 15.1084 229.485 16.5033 226.212C24.6044 207.435 36.1392 186.672 48.6933 168.27C54.1119 160.277 54.0046 160.437 62.8032 148.956C75.6792 132.218 97.6758 109.202 114.146 95.2527C124.179 86.776 139.362 75.4558 150.092 68.4813C154.545 65.5842 158.783 62.7944 159.588 62.2579C160.393 61.6678 161.197 61.2386 161.358 61.2386C161.573 61.2386 162.7 60.5411 163.934 59.6827C166.992 57.5904 181.477 49.7575 188.72 46.2166C204.761 38.491 208.892 36.5059 210.824 35.8085C211.95 35.4329 215.277 34.0917 218.227 32.9114C225.899 29.907 239.902 25.2394 249.881 22.396C254.602 21.0547 259.913 19.4989 261.684 18.9087C265.01 17.7821 267.585 17.1919 280.73 14.5094C321.826 6.08637 366.462 4.90608 408.953 11.1295C426.926 13.7583 435.564 15.5824 453.107 20.5182C460.886 22.6642 461.047 22.7179 462.925 21.8058C464.374 21.1084 466.412 20.8938 471.885 20.8938C479.664 20.8938 487.765 21.8595 499.568 24.2737C503.86 25.1321 507.347 25.7759 507.401 25.6686C507.455 25.615 508.903 22.7715 510.566 19.3916C516.039 8.44698 521.618 2.49182 527.681 1.15057C531.973 0.238523 535.836 1.36517 539.216 4.58417C544.527 9.57362 545.439 18.6405 541.791 31.0873L540.503 35.5402L542.756 36.3986C543.937 36.8815 547.746 38.7592 551.126 40.476C572.961 51.7425 582.243 59.3608 582.243 65.9598C582.243 67.9985 581.975 68.6423 580.204 70.3591C577.575 72.9879 575.215 73.4708 570.118 72.4514C567.328 71.8613 566.362 71.8613 566.523 72.2905C566.631 72.6124 567.274 73.1489 567.918 73.4708C569.206 74.0609 584.657 85.3811 591.632 90.8534C604.132 100.671 620.817 116.391 634.015 130.769C648.769 146.81 668.244 172.723 678.169 189.462C686.27 203.143 697.698 225.139 701.775 234.904C708.696 251.428 714.276 266.611 713.9 267.952C713.632 268.81 696.195 268.864 357.932 268.864C121.174 268.864 2.28601 268.703 2.28601 268.328ZM208.302 254.432C208.302 251.911 206.532 246.009 204.708 242.307C202.615 238.176 198.484 232.865 195.587 230.665C191.563 227.607 185.286 224.442 181.477 223.583C177.131 222.51 170.264 222.511 166.562 223.476C162.914 224.496 158.032 227.178 155.886 229.485C152.613 232.972 147.946 231.47 146.605 226.481C145.853 223.691 146.336 219.506 147.999 214.141C149.985 207.703 150.521 203.25 150.199 196.437C149.716 186.78 147.839 182.058 142.044 176.318C137.591 171.865 131.958 168.7 125.145 166.822C121.067 165.695 119.458 165.588 109.586 165.641C99.7681 165.641 97.8904 165.802 92.1498 167.09C76.9132 170.416 58.8868 177.927 54.2729 182.863C49.4444 188.014 31.418 221.813 24.3898 238.82C21.6 245.58 17.8445 255.613 17.8445 256.31C17.8445 256.417 60.7109 256.525 113.073 256.525H208.302V254.432ZM487.497 252.662C487.658 250.516 488.355 239.786 488.999 228.841L490.179 208.991L492.647 209.366C493.989 209.581 496.564 209.795 498.441 209.795L501.821 209.849L501.5 213.229C501.07 217.736 499.085 251.964 499.085 254.486V256.525H539.752H580.365L581.331 253.896C583.96 246.492 592.705 236.728 603.166 229.485C618.671 218.755 628.543 215.751 655.153 213.712L660.143 213.336L661.055 210.922C662.932 206.147 665.078 202.124 666.849 200.138L668.673 198.1L665.347 192.842C657.085 179.751 655.153 177.015 642.599 160.491C630.206 144.182 609.229 122.292 591.256 106.948C579.775 97.1841 562.285 84.4154 547.209 74.7584C543.132 72.1295 528.486 63.8674 523.389 61.2922L521.135 60.1656L520.653 63.009C520.331 64.5112 519.58 68.7496 518.936 72.3441C517.809 78.5675 517.702 78.9431 516.629 78.6748C511.478 77.4945 507.508 76.8507 507.026 77.1726C506.596 77.3872 506.543 76.9044 506.811 75.6704C507.562 71.8613 509.923 58.717 510.191 56.6783L510.459 54.5323L502.251 50.9378C497.69 48.9527 492.647 46.8067 491.038 46.2166C484.868 43.8023 473.494 39.6713 471.187 38.9738C469.846 38.5983 466.412 37.418 463.569 36.345C444.791 29.4778 404.769 22.0204 378.373 20.4646C367.696 19.8208 343.178 19.8208 331.429 20.4646C304.872 21.8595 264.205 29.5314 244.57 36.7742C241.887 37.7935 237.38 39.403 234.591 40.3151C218.603 45.7337 201.542 53.2984 184.964 62.3116C164.738 73.3098 164.631 73.4171 147.678 85.4884C120.638 104.749 98.7488 125.082 77.6106 150.566C72.2456 157.057 69.2949 160.813 68.6511 161.886C68.4902 162.208 71.7628 161.296 76.0012 159.901C87.9651 155.877 96.0126 154.482 108.513 154.214C118.17 153.946 119.458 154.053 125.52 155.287C136.304 157.54 144.029 161.671 150.521 168.485C156.583 174.923 159.856 182.595 161.09 193.003C161.734 198.529 161.197 207.81 160.017 211.995C159.749 212.961 159.588 213.873 159.695 213.98C159.749 214.087 160.876 213.766 162.109 213.336C166.616 211.781 173 211.19 178.473 211.888C199.021 214.463 213.184 226.695 218.281 246.277C218.978 249.014 219.569 252.447 219.569 253.896V256.525H353.372H487.175L487.497 252.662ZM697.054 256.256C697.054 255.72 693.298 246.063 692.225 243.917C691.689 242.737 689.489 238.176 687.397 233.723C681.066 220.311 676.452 211.459 675.862 211.62C675.594 211.727 674.36 214.034 673.18 216.716C671.248 221.169 670.765 221.813 667.976 223.798C664.435 226.32 663.254 226.588 650.915 227.822C629.562 229.968 618.778 233.992 605.634 244.668C602.093 247.511 595.119 255.076 595.119 256.095C595.119 256.31 618.081 256.525 646.086 256.525C674.145 256.525 697.054 256.417 697.054 256.256Z" fill="white"/>
<path d="M496.671 198.046C494.042 197.831 491.627 197.778 491.359 197.939C491.091 198.1 491.037 197.402 491.198 196.383C491.359 195.363 491.788 191.662 492.11 188.121C492.969 178.249 493.505 173.152 494.471 165.856C494.954 162.154 495.759 155.662 496.295 151.37L497.207 143.645L500.158 143.859C501.768 143.967 504.236 144.074 505.684 144.128C507.079 144.128 508.206 144.235 508.206 144.396C508.206 144.503 507.83 147.508 507.401 151.102C505.469 166.714 502.841 193.754 502.841 197.617C502.841 198.153 502.519 198.529 502.197 198.529C501.821 198.475 499.353 198.261 496.671 198.046Z" fill="white"/>
<path d="M502.09 132.217L498.441 132.003L498.763 130.286C498.924 129.32 499.407 125.672 499.89 122.131C500.319 118.59 501.607 109.47 502.68 101.851L504.665 87.9561L506.06 88.278C506.811 88.4389 509.118 88.8681 511.156 89.19C513.249 89.5656 515.127 89.9948 515.341 90.2094C515.609 90.424 515.073 94.9306 514.161 100.188C512.712 108.772 509.815 129.749 509.815 131.788C509.815 132.378 509.279 132.539 507.83 132.486C506.704 132.432 504.128 132.271 502.09 132.217Z" fill="white"/>
</svg>
